<svg id="Layer_1" xmlns="http://www.w3.org/2000/svg" viewBox="-410 183 139 195"><style>.st0{fill:url(#SVGID_1_);} .st1{fill:url(#SVGID_2_);} .st2{fill:url(#SVGID_3_);} .st3{fill:url(#SVGID_4_);} .st4{fill:url(#SVGID_5_);} .st5{fill:url(#SVGID_6_);} .st6{fill:url(#SVGID_7_);} .st7{fill:url(#SVGID_8_);} .st8{fill:url(#SVGID_9_);} .st9{fill:url(#SVGID_10_);}</style><linearGradient id="SVGID_1_" gradientUnits="userSpaceOnUse" x1="-292.5307" y1="247.5256" x2="-271.5307" y2="250.5256" gradientTransform="matrix(1 0 0 -1 0 562)"><stop offset=".00350765" stop-color="#18585D"/><stop offset=".2578" stop-color="#18585D"/><stop offset=".6492" stop-color="#3C97A0"/></linearGradient><path class="st0" d="M-286.3 285.6s7.3-1.8 8.2 5.5c0 0-1.8-3.5-5 0 0 0-7.7 3.3-6.7 12.5 1 2 2.4 6.9 2.4 6.9s.1 35.6-38.5 36.3c3.5 0 32.3-2.1 29.1-29.4-2.9-24.4-.9-28.8 10.5-31.8z"/><linearGradient id="SVGID_2_" gradientUnits="userSpaceOnUse" x1="-341.1746" y1="203.8543" x2="-322.8159" y2="203.8543" gradientTransform="matrix(1 0 0 -1 0 562)"><stop offset=".2578" stop-color="#18585D"/><stop offset=".6492" stop-color="#3C97A0"/></linearGradient><path class="st1" d="M-322.8 350.6s-13.2 2.1-18.4 15.1c.4-2 6.3-15.5 18.4-15.1z"/><linearGradient id="SVGID_3_" gradientUnits="userSpaceOnUse" x1="-361.5464" y1="204.05" x2="-325.2464" y2="204.05" gradientTransform="matrix(1 0 0 -1 0 562)"><stop offset=".2578" stop-color="#18585D"/><stop offset=".6492" stop-color="#3C97A0"/></linearGradient><path class="st2" d="M-325.2 346.9s-25.4 8.2-36.3 22.1c.8-1.9 13.1-16.6 36.3-22.1z"/><linearGradient id="SVGID_4_" gradientUnits="userSpaceOnUse" x1="-299.1035" y1="236.1447" x2="-302.0517" y2="283.6443" gradientTransform="matrix(1 0 0 -1 0 562)"><stop offset=".03872369" stop-color="#00272A"/><stop offset=".2578" stop-color="#00383C"/><stop offset=".6492" stop-color="#3C97A0"/></linearGradient><path class="st3" d="M-297.2 290.8s-4.2 2.2-7.6 9c4.8 9.3 7.4 20.9 5.5 31.2.4-2.2 2.7-4.2-.1-25.1-1.8-13 2.2-15.1 2.2-15.1z"/><linearGradient id="SVGID_5_" gradientUnits="userSpaceOnUse" x1="-403.1207" y1="238.0661" x2="-425.7874" y2="246.0661" gradientTransform="matrix(1 0 0 -1 0 562)"><stop offset=".03872369" stop-color="#00272A"/><stop offset=".2578" stop-color="#00383C"/><stop offset=".6492" stop-color="#3C97A0"/></linearGradient><path class="st4" d="M-318.9 350.1c-4 1.6-7.9 2.6-11.1 3.2 6.4-.8 10.5-1.4 11.1-3.2z"/><linearGradient id="SVGID_6_" gradientUnits="userSpaceOnUse" x1="-404.8219" y1="233.2464" x2="-427.4885" y2="241.2464" gradientTransform="matrix(1 0 0 -1 0 562)"><stop offset=".03872369" stop-color="#00272A"/><stop offset=".2578" stop-color="#00383C"/><stop offset=".6492" stop-color="#3C97A0"/></linearGradient><path class="st5" d="M-330 353.3c-2.3.3-4.9.6-7.7 1 0 .1 3.2-.1 7.7-1z"/><linearGradient id="SVGID_7_" gradientUnits="userSpaceOnUse" x1="-379.4896" y1="305.0208" x2="-402.1563" y2="313.0208" gradientTransform="matrix(1 0 0 -1 0 562)"><stop offset=".03872369" stop-color="#00272A"/><stop offset=".2578" stop-color="#00383C"/><stop offset=".6492" stop-color="#3C97A0"/></linearGradient><path class="st6" d="M-320 296.4c-81.7-57.9-36.5-94.7-36.5-94.7s0-.1-.1-.2c-1.5-2.3-30.1 34.3-29.3 40 4.4 32.3 41.9 44.8 65.6 59.7 34.6 21.9 11.7 43.1 9.7 43.7 9.7-2.8 20.6-29.9-9.4-48.5z"/><linearGradient id="SVGID_8_" gradientUnits="userSpaceOnUse" x1="-390.9694" y1="272.4951" x2="-413.636" y2="280.4951" gradientTransform="matrix(1 0 0 -1 0 562)"><stop offset=".03872369" stop-color="#00272A"/><stop offset=".2578" stop-color="#00383C"/><stop offset=".6492" stop-color="#3C97A0"/></linearGradient><path class="st7" d="M-316.3 346.4s14.1-6.1 10.4-17.9c-3.6-11.5-84.1-14.8-95.7-70.2l-.6-3.3c-5 28.7 3.8 58.5 42.2 61.9.6.1 1.2.1 1.8.2 39.8 2.5 64.7 14.5 41.9 29.3z"/><g><linearGradient id="SVGID_9_" gradientUnits="userSpaceOnUse" x1="-377.1" y1="292.65" x2="-300.3188" y2="292.65" gradientTransform="matrix(1 0 0 -1 0 562)"><stop offset=".05532525" stop-color="#00393D"/><stop offset=".2578" stop-color="#18585D"/><stop offset=".6492" stop-color="#3C97A0"/></linearGradient><path class="st8" d="M-316.9 346.4c12.6-2.3 18.9-11.3 15.8-30-5.6-34-65.3-79.3-28.5-124.1-3.6 3.8-8.6 8.5-14 13.8.1.1.1.2.1.2s-33.6 35.3 27.1 90.8c22.3 17.9 14.2 43.8 7 46.5 1.5-.5 18.6-20.9-7.2-41.9-17.6-14.3-47.5-36.2-50.8-67.1-5 8.1-8.7 16.8-9.7 26 8.7 53 68.5 56.3 71.2 67.3 2.8 11.3-7.7 17.1-7.7 17.1"/><linearGradient id="SVGID_10_" gradientUnits="userSpaceOnUse" x1="-376.9" y1="240.8" x2="-307.4484" y2="240.8" gradientTransform="matrix(1 0 0 -1 0 562)"><stop offset=".05532525" stop-color="#00393D"/><stop offset=".2578" stop-color="#18585D"/><stop offset=".6492" stop-color="#3C97A0"/></linearGradient><path class="st9" d="M-376.9 296.6s13.2 39.2 37.7 34.1c24.5-5.1 35.2 7.9 25.1 15.1 8.2-5.9 10.5-11.1-2.9-18s-43.1-.5-59.9-31.2z"/></g></svg>